<mxfile host="app.diagrams.net" modified="2025-09-03T00:00:00.000Z" agent="AI" version="22.0.0" editor="www.diagrams.net">
  <diagram id="draft-api-endpoints-realtime" name="Draft API Endpoints & Real-time">
    <mxGraphModel dx="1280" dy="720" grid="1" gridSize="10" guides="1" tooltips="1" connect="1" arrows="1" fold="1" page="1" pageScale="1" pageWidth="1920" pageHeight="1080" background="#FFFFFF">
      <root>
        <mxCell id="0"/>
        <mxCell id="1" parent="0"/>

        <!-- Title -->
        <mxCell id="title" value="Draft API Endpoints &amp; Real-time" style="rounded=1;whiteSpace=wrap;html=1;fontSize=24;fontStyle=1;fillColor=#E0F2FE;strokeColor=#0284C7;fontColor=#0C4A6E;align=center;verticalAlign=middle;" vertex="1" parent="1">
          <mxGeometry x="40" y="20" width="560" height="60" as="geometry"/>
        </mxCell>

        <!-- Section: Draft Room Operations -->
        <mxCell id="sec_ops" value="Draft Room Operations" style="rounded=1;whiteSpace=wrap;html=1;fontSize=16;fontStyle=1;fillColor=#EFF6FF;strokeColor=#0EA5E9;fontColor=#0C4A6E;align=left;verticalAlign=middle;" vertex="1" parent="1">
          <mxGeometry x="40" y="100" width="560" height="40" as="geometry"/>
        </mxCell>

        <mxCell id="ep_data" value="[GET] /api/drafts/[id]/data\nDraft data for room" style="rounded=1;whiteSpace=wrap;html=1;fillColor=#F0F9FF;strokeColor=#0284C7;fontColor=#0C4A6E;" vertex="1" parent="1">
          <mxGeometry x="40" y="150" width="270" height="60" as="geometry"/>
        </mxCell>
        <mxCell id="ep_room" value="[GET] /api/drafts/[id]/room-state\nRoom timing state" style="rounded=1;whiteSpace=wrap;html=1;fillColor=#F0F9FF;strokeColor=#0284C7;fontColor=#0C4A6E;" vertex="1" parent="1">
          <mxGeometry x="330" y="150" width="270" height="60" as="geometry"/>
        </mxCell>
        <mxCell id="ep_pick" value="[POST] /api/drafts/[id]/pick\nMake a pick" style="rounded=1;whiteSpace=wrap;html=1;fillColor=#DBEAFE;strokeColor=#1E3A8A;fontColor=#1E3A8A;" vertex="1" parent="1">
          <mxGeometry x="40" y="220" width="270" height="60" as="geometry"/>
        </mxCell>
        <mxCell id="ep_autopick" value="[POST] /api/drafts/[id]/autopick\nServer autopick" style="rounded=1;whiteSpace=wrap;html=1;fillColor=#DBEAFE;strokeColor=#1E3A8A;fontColor=#1E3A8A;" vertex="1" parent="1">
          <mxGeometry x="330" y="220" width="270" height="60" as="geometry"/>
        </mxCell>

        <!-- Section: Commissioner Controls -->
        <mxCell id="sec_comm" value="Draft Control (Commissioner)" style="rounded=1;whiteSpace=wrap;html=1;fontSize=16;fontStyle=1;fillColor=#EFF6FF;strokeColor=#0EA5E9;fontColor=#0C4A6E;align=left;verticalAlign=middle;" vertex="1" parent="1">
          <mxGeometry x="40" y="310" width="560" height="40" as="geometry"/>
        </mxCell>

        <mxCell id="ep_start" value="[POST] /api/drafts/[id]/start\nStart draft" style="rounded=1;whiteSpace=wrap;html=1;fillColor=#DBEAFE;strokeColor=#1E3A8A;fontColor=#1E3A8A;" vertex="1" parent="1">
          <mxGeometry x="40" y="360" width="270" height="60" as="geometry"/>
        </mxCell>
        <mxCell id="ep_pause" value="[POST] /api/drafts/[id]/pause\nPause draft" style="rounded=1;whiteSpace=wrap;html=1;fillColor=#DBEAFE;strokeColor=#1E3A8A;fontColor=#1E3A8A;" vertex="1" parent="1">
          <mxGeometry x="330" y="360" width="270" height="60" as="geometry"/>
        </mxCell>
        <mxCell id="ep_resume" value="[POST] /api/drafts/[id]/resume\nResume draft" style="rounded=1;whiteSpace=wrap;html=1;fillColor=#DBEAFE;strokeColor=#1E3A8A;fontColor=#1E3A8A;" vertex="1" parent="1">
          <mxGeometry x="40" y="430" width="270" height="60" as="geometry"/>
        </mxCell>
        <mxCell id="ep_reset" value="[DELETE] /api/drafts/[id]/reset\nReset mock draft" style="rounded=1;whiteSpace=wrap;html=1;fillColor=#FEE2E2;strokeColor=#991B1B;fontColor=#7F1D1D;" vertex="1" parent="1">
          <mxGeometry x="330" y="430" width="270" height="60" as="geometry"/>
        </mxCell>

        <!-- Section: Player Data & Rankings -->
        <mxCell id="sec_player" value="Player Data &amp; Rankings" style="rounded=1;whiteSpace=wrap;html=1;fontSize=16;fontStyle=1;fillColor=#EFF6FF;strokeColor=#0EA5E9;fontColor=#0C4A6E;align=left;verticalAlign=middle;" vertex="1" parent="1">
          <mxGeometry x="40" y="520" width="560" height="40" as="geometry"/>
        </mxCell>

        <mxCell id="ep_players" value="[GET] /api/draft/players\nAvailable players" style="rounded=1;whiteSpace=wrap;html=1;fillColor=#DCFCE7;strokeColor=#166534;fontColor=#166534;" vertex="1" parent="1">
          <mxGeometry x="40" y="570" width="270" height="60" as="geometry"/>
        </mxCell>
        <mxCell id="ep_rankings" value="[GET] /api/draft/players/rankings\nPlayer rankings" style="rounded=1;whiteSpace=wrap;html=1;fillColor=#DCFCE7;strokeColor=#166534;fontColor=#166534;" vertex="1" parent="1">
          <mxGeometry x="330" y="570" width="270" height="60" as="geometry"/>
        </mxCell>
        <mxCell id="ep_stats" value="[GET] /api/draft/players/[id]/stats\nPlayer statistics" style="rounded=1;whiteSpace=wrap;html=1;fillColor=#DCFCE7;strokeColor=#166534;fontColor=#166534;" vertex="1" parent="1">
          <mxGeometry x="40" y="640" width="270" height="60" as="geometry"/>
        </mxCell>
        <mxCell id="ep_rank_put" value="[PUT] /api/draft/players/[id]/rank\nUpdate custom rank" style="rounded=1;whiteSpace=wrap;html=1;fillColor=#FEF3C7;strokeColor=#92400E;fontColor=#92400E;" vertex="1" parent="1">
          <mxGeometry x="330" y="640" width="270" height="60" as="geometry"/>
        </mxCell>

        <!-- Section: Management -->
        <mxCell id="sec_mgmt" value="Draft Management" style="rounded=1;whiteSpace=wrap;html=1;fontSize=16;fontStyle=1;fillColor=#EFF6FF;strokeColor=#0EA5E9;fontColor=#0C4A6E;align=left;verticalAlign=middle;" vertex="1" parent="1">
          <mxGeometry x="40" y="730" width="560" height="40" as="geometry"/>
        </mxCell>

        <mxCell id="ep_create" value="[POST] /api/drafts/create\nCreate new draft" style="rounded=1;whiteSpace=wrap;html=1;fillColor=#DBEAFE;strokeColor=#1E3A8A;fontColor=#1E3A8A;" vertex="1" parent="1">
          <mxGeometry x="40" y="780" width="270" height="60" as="geometry"/>
        </mxCell>
        <mxCell id="ep_board" value="[GET] /api/drafts/[id]/board\nGet draft board" style="rounded=1;whiteSpace=wrap;html=1;fillColor=#F0F9FF;strokeColor=#0284C7;fontColor=#0C4A6E;" vertex="1" parent="1">
          <mxGeometry x="330" y="780" width="270" height="60" as="geometry"/>
        </mxCell>
        <mxCell id="ep_export" value="[GET] /api/drafts/[id]/export\nExport results" style="rounded=1;whiteSpace=wrap;html=1;fillColor=#F0F9FF;strokeColor=#0284C7;fontColor=#0C4A6E;" vertex="1" parent="1">
          <mxGeometry x="40" y="850" width="270" height="60" as="geometry"/>
        </mxCell>
        <mxCell id="ep_chat" value="[GET] /api/drafts/[id]/chat\nDraft chat history" style="rounded=1;whiteSpace=wrap;html=1;fillColor=#F0F9FF;strokeColor=#0284C7;fontColor=#0C4A6E;" vertex="1" parent="1">
          <mxGeometry x="330" y="850" width="270" height="60" as="geometry"/>
        </mxCell>

        <!-- Realtime Channels note -->
        <mxCell id="sec_rt" value="Realtime Channels (Appwrite Realtime)\n• databases.[db].collections.draft_picks.documents\n• databases.[db].collections.draft_states.documents\n• databases.[db].collections.leagues.documents.[id]\n• draft.[id].picks, draft.[id].chat, draft.[id].timer" style="rounded=1;whiteSpace=wrap;html=1;fillColor=#ECFEFF;strokeColor=#06B6D4;fontColor=#0E7490;" vertex="1" parent="1">
          <mxGeometry x="640" y="150" width="600" height="240" as="geometry"/>
        </mxCell>

        <!-- Event Types note -->
        <mxCell id="sec_events" value="Event Types\n• PICK_MADE, TIMER_UPDATE, DRAFT_PAUSED, DRAFT_RESUMED\n• USER_JOINED, USER_LEFT, CHAT_MESSAGE, TRADE_PROPOSAL" style="rounded=1;whiteSpace=wrap;html=1;fillColor=#F5F3FF;strokeColor=#7C3AED;fontColor=#5B21B6;" vertex="1" parent="1">
          <mxGeometry x="640" y="410" width="600" height="160" as="geometry"/>
        </mxCell>

      </root>
    </mxGraphModel>
  </diagram>
</mxfile>